<svg xmlns="http://www.w3.org/2000/svg" fill="none" viewBox="0 0 153 20"><g clip-path="url(#a)"><path fill="#035BFF" d="M12.641 9.128v10.068c0 .223.18.402.402.402h4.616c.222 0 .401-.18.401-.402V9.128H12.641Z"/><path fill="url(#b)" d="M12.074 4.616H8.129V.5A.403.403 0 0 0 7.727.1H3.111A.401.401 0 0 0 2.71.5v4.115H.402A.401.401 0 0 0 0 5.017V8.73c0 .222.18.402.402.402H2.71v4.894c0 .505-.027 3.045 1.358 4.526.906.97 2.271 1.451 4.1 1.451 1 0 2-.106 2.993-.319a.402.402 0 0 0 .318-.431l-.315-3.238a.4.4 0 0 0-.458-.358c-.356.056-.74.083-1.16.083-.942 0-1.414-.585-1.414-1.757V9.132h9.926L13.103 4.99a1.6 1.6 0 0 0-1.03-.372v-.003Z"/><path fill="#B7F30F" d="M15.799 5.416a2.71 2.71 0 0 0 2.71-2.71A2.705 2.705 0 0 0 15.799 0a2.708 2.708 0 0 0-2.67 3.168l2.667 2.251.003-.003Z"/><path fill="#023DAB" d="m18.058 13.7-5.416-4.572h5.416v4.573Z"/><path fill="#035BFF" d="M33.556 14.757c-.193.096-1.511.674-2.262-.106-.252-.263-.378-.714-.378-1.355v-4.17h2.63v-2.08h-2.63V4.148h-2.57v2.898h-2.109v2.08h2.109v4.678c0 1.185.302 2.072.903 2.66 1.185 1.152 3.294 1.066 4.705.328l-.398-2.038v.003Z"/><path fill="#035BFF" d="M39.35 17.347c-2.015.01-3.792-.827-4.781-2.52-1.15-1.96-.867-4.981.83-6.585 1.01-1 2.377-1.501 3.839-1.495 3.34-.063 5.452 2.694 4.88 5.921h-7.82c.017 3.158 4.358 3.171 6.28 1.65l.9 1.79c-1.086.847-2.756 1.226-4.13 1.239m-2.9-6.502h5.18c-.04-1.418-1.026-2.172-2.45-2.162-1.408-.01-2.584.738-2.73 2.162ZM53.147 8.431c-1.531-2.464-5.841-2.119-8.046-.614l.7 1.83c1.66-1.326 5.649-1.624 5.44 1.324-2.245-.143-4.945-.14-6.24 1.684-.597.896-.528 2.33.024 3.194.647 1.036 1.8 1.498 3.054 1.495 1.312 0 2.617-.405 3.36-1.442v1.14h2.262v-6.32c0-.926-.186-1.69-.554-2.294m-2.242 5.98c-.485.688-1.298.996-2.165.996-.554 0-.99-.12-1.311-.355-.542-.369-.658-1.285-.186-1.787.196-.219.494-.391.89-.514.89-.27 2.035-.24 3.104-.113.014.581.03 1.322-.335 1.773M55.624 17.045V7.043h2.57v1.332c1.372-2.172 5.32-2.248 6.28.249 1.172-1.96 4.2-2.385 5.95-1.332 1.106.707 1.54 1.963 1.55 3.211v6.542h-2.57v-5.801c0-1.282-.71-2.179-2.048-2.162-1.232-.03-2.301.93-2.271 2.178v5.781h-2.57v-5.8c0-1.282-.711-2.18-2.05-2.162-1.232-.03-2.3.93-2.27 2.178v5.781h-2.571v.007ZM78.4 5.366c-.86.01-1.644-.624-1.62-1.53-.007-2.03 3.247-2.03 3.24 0 .023.906-.76 1.54-1.62 1.53ZM79.685 7.046h-2.57v10.002h2.57V7.046ZM81.662 17.045V7.043h2.57v1.199c1.594-2.235 5.552-1.91 6.72.461.293.575.442 1.173.442 1.8v6.542h-2.57v-5.742c.007-1.354-.85-2.238-2.228-2.221-1.368-.04-2.404 1.072-2.36 2.43v5.53h-2.571l-.003.003ZM99.307 14.757c-1.312.624-2.726.322-2.64-1.461v-4.17h2.63v-2.08h-2.63V4.148h-2.57v2.898h-2.109v2.08h2.109v4.678c0 1.185.302 2.072.903 2.66 1.09 1.139 3.337 1.076 4.705.328l-.398-2.038v.003ZM111.218 17.045V7.043h2.57v1.312c.827-1.495 2.577-1.847 4.111-1.501l-.319 2.64c-1.77-.635-3.829.09-3.789 2.231v5.32h-2.573Z"/><path fill="#035BFF" d="M105.101 17.347c-2.016.01-3.793-.827-4.782-2.52-1.15-1.96-.867-4.981.83-6.585 1.009-1 2.378-1.501 3.839-1.495 3.34-.063 5.452 2.694 4.881 5.921h-7.82c.016 3.158 4.357 3.171 6.279 1.65l.9 1.79c-1.086.847-2.756 1.226-4.131 1.239m-2.899-6.502h5.18c-.039-1.418-1.026-2.172-2.45-2.162-1.408-.01-2.584.738-2.73 2.162ZM118.812 17.045V7.043h2.57v1.199c1.594-2.235 5.552-1.91 6.721.461.293.575.442 1.173.442 1.8v6.542h-2.57v-5.742c.006-1.354-.85-2.238-2.232-2.221-1.368-.04-2.404 1.072-2.361 2.43v5.53h-2.57v.003ZM135.279 17.347c-2.016.01-3.793-.827-4.779-2.52-1.149-1.96-.866-4.981.83-6.585 1.01-1 2.378-1.501 3.842-1.495 3.341-.063 5.453 2.694 4.882 5.921h-7.82c.016 3.158 4.356 3.171 6.279 1.65l.9 1.79c-1.086.847-2.756 1.226-4.131 1.239m-2.899-6.502h5.18c-.04-1.418-1.026-2.172-2.45-2.162-1.412-.01-2.584.738-2.73 2.162ZM147.538 14.76c-1.311.624-2.726.322-2.64-1.46V9.127h2.63V7.05h-2.63v-2.9h-2.57v2.9h-2.108v2.078h2.108v4.68c0 1.185.303 2.071.904 2.659 1.089 1.139 3.337 1.076 4.705.329l-.399-2.04v.004Z"/><path fill="#B7F30F" d="M150.853 17.52c-1.332.03-2.165-1.349-1.491-2.5.83-1.35 3.28-.834 3.211.87.026.949-.804 1.653-1.72 1.63Z"/><path fill="#035BFF" d="M33.555 14.757c-.193.096-1.511.674-2.262-.107-.252-.262-.378-.714-.378-1.354V9.125h2.63V7.046h-2.63V4.147h-2.57v2.9h-2.109v2.078h2.109v4.679c0 1.185.302 2.072.903 2.66 1.185 1.152 3.294 1.065 4.705.328l-.398-2.039v.004Z"/><path fill="#035BFF" d="M39.35 17.347c-2.016.01-3.793-.827-4.782-2.52-1.15-1.96-.867-4.982.83-6.585 1.01-1 2.378-1.501 3.839-1.495 3.34-.063 5.452 2.693 4.88 5.921h-7.82c.018 3.158 4.358 3.171 6.28 1.65l.9 1.79c-1.086.847-2.756 1.226-4.13 1.239m-2.9-6.502h5.18c-.04-1.418-1.026-2.172-2.45-2.162-1.408-.01-2.584.737-2.73 2.162ZM53.147 8.43c-1.53-2.463-5.841-2.118-8.046-.613l.7 1.83c1.661-1.326 5.65-1.625 5.44 1.324-2.245-.143-4.944-.14-6.24 1.684-.597.896-.527 2.33.024 3.194.647 1.036 1.8 1.498 3.055 1.494 1.311 0 2.616-.405 3.36-1.44v1.138h2.262v-6.319c0-.926-.186-1.69-.555-2.294m-2.241 5.98c-.485.687-1.299.996-2.166.996-.554 0-.989-.12-1.311-.355-.541-.369-.658-1.285-.186-1.787.196-.219.495-.391.89-.514.89-.27 2.035-.24 3.105-.113.013.58.03 1.321-.336 1.773M55.623 17.044V7.043h2.57v1.331c1.372-2.171 5.32-2.248 6.28.25 1.172-1.96 4.2-2.385 5.95-1.332 1.106.707 1.54 1.962 1.55 3.21v6.542h-2.57v-5.8c0-1.282-.71-2.179-2.048-2.162-1.232-.03-2.301.93-2.272 2.178v5.781h-2.57v-5.8c0-1.283-.71-2.18-2.048-2.163-1.232-.03-2.302.93-2.272 2.179v5.78h-2.57v.008ZM78.4 5.366c-.86.01-1.644-.624-1.62-1.53-.007-2.03 3.247-2.03 3.24 0 .023.906-.76 1.54-1.62 1.53ZM79.685 7.046h-2.57v10.002h2.57V7.046ZM81.66 17.045V7.043h2.57v1.199c1.595-2.235 5.553-1.91 6.722.461.292.575.441 1.172.441 1.8v6.542h-2.57v-5.742c.007-1.355-.85-2.238-2.228-2.221-1.368-.04-2.404 1.072-2.36 2.43v5.53h-2.571l-.003.003ZM99.307 14.757c-1.312.624-2.726.322-2.64-1.461V9.125h2.63V7.046h-2.63V4.147h-2.57v2.9h-2.109v2.078h2.109v4.679c0 1.185.302 2.072.903 2.66 1.09 1.139 3.337 1.075 4.705.328l-.398-2.039v.004ZM111.218 17.044V7.043h2.57v1.311c.827-1.494 2.577-1.846 4.111-1.5l-.319 2.64c-1.77-.635-3.828.09-3.789 2.23v5.32h-2.573Z"/><path fill="#035BFF" d="M105.101 17.347c-2.016.01-3.792-.827-4.782-2.52-1.149-1.96-.867-4.982.83-6.585 1.01-1 2.378-1.501 3.839-1.495 3.34-.063 5.452 2.693 4.881 5.921h-7.82c.017 3.158 4.357 3.171 6.279 1.65l.9 1.79c-1.086.847-2.756 1.226-4.131 1.239m-2.898-6.502h5.18c-.04-1.418-1.026-2.172-2.451-2.162-1.408-.01-2.583.737-2.729 2.162ZM118.811 17.045V7.043h2.57v1.199c1.594-2.235 5.553-1.91 6.721.461.293.575.442 1.172.442 1.8v6.542h-2.57v-5.742c.007-1.355-.85-2.238-2.232-2.221-1.368-.04-2.404 1.072-2.361 2.43v5.53h-2.57v.003ZM135.279 17.347c-2.016.01-3.793-.827-4.779-2.52-1.149-1.96-.866-4.982.83-6.585 1.01-1 2.378-1.501 3.842-1.495 3.341-.063 5.453 2.693 4.882 5.921h-7.82c.016 3.158 4.356 3.171 6.279 1.65l.9 1.79c-1.086.847-2.756 1.226-4.131 1.239m-2.899-6.502h5.18c-.04-1.418-1.026-2.172-2.45-2.162-1.412-.01-2.584.737-2.73 2.162ZM147.538 14.76c-1.311.624-2.726.322-2.64-1.461v-4.17h2.63v-2.08h-2.63V4.152h-2.57V7.05h-2.108v2.078h2.108v4.679c0 1.185.303 2.072.904 2.66 1.089 1.139 3.337 1.076 4.705.329l-.399-2.04v.004Z"/><path fill="#B7F30F" d="M150.853 17.52c-1.332.03-2.165-1.349-1.491-2.501.83-1.348 3.28-.834 3.211.87.026.95-.804 1.654-1.72 1.63Z"/><path fill="#035BFF" d="M33.555 14.757c-.193.096-1.511.674-2.262-.107-.252-.262-.378-.714-.378-1.354V9.125h2.63V7.046h-2.63V4.147h-2.57v2.9h-2.109v2.078h2.109v4.679c0 1.185.302 2.072.903 2.66 1.185 1.152 3.294 1.065 4.705.328l-.398-2.039v.004Z"/><path fill="#035BFF" d="M39.35 17.347c-2.016.01-3.793-.827-4.782-2.52-1.15-1.96-.867-4.982.83-6.585 1.01-1 2.378-1.501 3.839-1.495 3.34-.063 5.452 2.693 4.88 5.921h-7.82c.018 3.158 4.358 3.171 6.28 1.65l.9 1.79c-1.086.847-2.756 1.226-4.13 1.239m-2.9-6.502h5.18c-.04-1.418-1.026-2.172-2.45-2.162-1.408-.01-2.584.737-2.73 2.162ZM53.147 8.43c-1.53-2.463-5.841-2.118-8.046-.613l.7 1.83c1.661-1.326 5.65-1.625 5.44 1.324-2.245-.143-4.944-.14-6.24 1.684-.597.896-.527 2.33.024 3.194.647 1.036 1.8 1.498 3.055 1.494 1.311 0 2.616-.405 3.36-1.44v1.138h2.262v-6.319c0-.926-.186-1.69-.555-2.294m-2.241 5.98c-.485.687-1.299.996-2.166.996-.554 0-.989-.12-1.311-.355-.541-.369-.658-1.285-.186-1.787.196-.219.495-.391.89-.514.89-.27 2.035-.24 3.105-.113.013.58.03 1.321-.336 1.773M55.623 17.044V7.043h2.57v1.331c1.372-2.171 5.32-2.248 6.28.25 1.172-1.96 4.2-2.385 5.95-1.332 1.106.707 1.54 1.962 1.55 3.21v6.542h-2.57v-5.8c0-1.282-.71-2.179-2.048-2.162-1.232-.03-2.301.93-2.272 2.178v5.781h-2.57v-5.8c0-1.283-.71-2.18-2.048-2.163-1.232-.03-2.302.93-2.272 2.179v5.78h-2.57v.008ZM78.4 5.366c-.86.01-1.644-.624-1.62-1.53-.007-2.03 3.247-2.03 3.24 0 .023.906-.76 1.54-1.62 1.53ZM79.685 7.046h-2.57v10.002h2.57V7.046ZM81.66 17.045V7.043h2.57v1.199c1.595-2.235 5.553-1.91 6.722.461.292.575.441 1.172.441 1.8v6.542h-2.57v-5.742c.007-1.355-.85-2.238-2.228-2.221-1.368-.04-2.404 1.072-2.36 2.43v5.53h-2.571l-.003.003ZM99.307 14.757c-1.312.624-2.726.322-2.64-1.461V9.125h2.63V7.046h-2.63V4.147h-2.57v2.9h-2.109v2.078h2.109v4.679c0 1.185.302 2.072.903 2.66 1.09 1.139 3.337 1.075 4.705.328l-.398-2.039v.004ZM111.218 17.044V7.043h2.57v1.311c.827-1.494 2.577-1.846 4.111-1.5l-.319 2.64c-1.77-.635-3.828.09-3.789 2.23v5.32h-2.573Z"/><path fill="#035BFF" d="M105.101 17.347c-2.016.01-3.792-.827-4.782-2.52-1.149-1.96-.867-4.982.83-6.585 1.01-1 2.378-1.501 3.839-1.495 3.34-.063 5.452 2.693 4.881 5.921h-7.82c.017 3.158 4.357 3.171 6.279 1.65l.9 1.79c-1.086.847-2.756 1.226-4.131 1.239m-2.898-6.502h5.18c-.04-1.418-1.026-2.172-2.451-2.162-1.408-.01-2.583.737-2.729 2.162ZM118.811 17.045V7.043h2.57v1.199c1.594-2.235 5.553-1.91 6.721.461.293.575.442 1.172.442 1.8v6.542h-2.57v-5.742c.007-1.355-.85-2.238-2.232-2.221-1.368-.04-2.404 1.072-2.361 2.43v5.53h-2.57v.003ZM135.279 17.347c-2.016.01-3.793-.827-4.779-2.52-1.149-1.96-.866-4.982.83-6.585 1.01-1 2.378-1.501 3.842-1.495 3.341-.063 5.453 2.693 4.882 5.921h-7.82c.016 3.158 4.356 3.171 6.279 1.65l.9 1.79c-1.086.847-2.756 1.226-4.131 1.239m-2.899-6.502h5.18c-.04-1.418-1.026-2.172-2.45-2.162-1.412-.01-2.584.737-2.73 2.162ZM147.538 14.76c-1.311.624-2.726.322-2.64-1.461v-4.17h2.63v-2.08h-2.63V4.152h-2.57V7.05h-2.108v2.078h2.108v4.679c0 1.185.303 2.072.904 2.66 1.089 1.139 3.337 1.076 4.705.329l-.399-2.04v.004Z"/><path fill="#B7F30F" d="M150.853 17.52c-1.332.03-2.165-1.349-1.491-2.501.83-1.348 3.28-.834 3.211.87.026.95-.804 1.654-1.72 1.63Z"/><path fill="#035BFF" d="M33.555 14.757c-.193.096-1.511.674-2.262-.107-.252-.262-.378-.714-.378-1.354V9.125h2.63V7.046h-2.63V4.147h-2.57v2.9h-2.109v2.078h2.109v4.679c0 1.185.302 2.072.903 2.66 1.185 1.152 3.294 1.065 4.705.328l-.398-2.039v.004Z"/><path fill="#035BFF" d="M39.35 17.347c-2.016.01-3.793-.827-4.782-2.52-1.15-1.96-.867-4.982.83-6.585 1.01-1 2.378-1.501 3.839-1.495 3.34-.063 5.452 2.693 4.88 5.921h-7.82c.018 3.158 4.358 3.171 6.28 1.65l.9 1.79c-1.086.847-2.756 1.226-4.13 1.239m-2.9-6.502h5.18c-.04-1.418-1.026-2.172-2.45-2.162-1.408-.01-2.584.737-2.73 2.162ZM53.147 8.43c-1.53-2.463-5.841-2.118-8.046-.613l.7 1.83c1.661-1.326 5.65-1.625 5.44 1.324-2.245-.143-4.944-.14-6.24 1.684-.597.896-.527 2.33.024 3.194.647 1.036 1.8 1.498 3.055 1.494 1.311 0 2.616-.405 3.36-1.44v1.138h2.262v-6.319c0-.926-.186-1.69-.555-2.294m-2.241 5.98c-.485.687-1.299.996-2.166.996-.554 0-.989-.12-1.311-.355-.541-.369-.658-1.285-.186-1.787.196-.219.495-.391.89-.514.89-.27 2.035-.24 3.105-.113.013.58.03 1.321-.336 1.773M55.623 17.044V7.043h2.57v1.331c1.372-2.171 5.32-2.248 6.28.25 1.172-1.96 4.2-2.385 5.95-1.332 1.106.707 1.54 1.962 1.55 3.21v6.542h-2.57v-5.8c0-1.282-.71-2.179-2.048-2.162-1.232-.03-2.301.93-2.272 2.178v5.781h-2.57v-5.8c0-1.283-.71-2.18-2.048-2.163-1.232-.03-2.302.93-2.272 2.179v5.78h-2.57v.008ZM78.4 5.366c-.86.01-1.644-.624-1.62-1.53-.007-2.03 3.247-2.03 3.24 0 .023.906-.76 1.54-1.62 1.53ZM79.685 7.046h-2.57v10.002h2.57V7.046ZM81.66 17.045V7.043h2.57v1.199c1.595-2.235 5.553-1.91 6.722.461.292.575.441 1.172.441 1.8v6.542h-2.57v-5.742c.007-1.355-.85-2.238-2.228-2.221-1.368-.04-2.404 1.072-2.36 2.43v5.53h-2.571l-.003.003ZM99.307 14.757c-1.312.624-2.726.322-2.64-1.461V9.125h2.63V7.046h-2.63V4.147h-2.57v2.9h-2.109v2.078h2.109v4.679c0 1.185.302 2.072.903 2.66 1.09 1.139 3.337 1.075 4.705.328l-.398-2.039v.004ZM111.218 17.044V7.043h2.57v1.311c.827-1.494 2.577-1.846 4.111-1.5l-.319 2.64c-1.77-.635-3.828.09-3.789 2.23v5.32h-2.573Z"/><path fill="#035BFF" d="M105.101 17.347c-2.016.01-3.792-.827-4.782-2.52-1.149-1.96-.867-4.982.83-6.585 1.01-1 2.378-1.501 3.839-1.495 3.34-.063 5.452 2.693 4.881 5.921h-7.82c.017 3.158 4.357 3.171 6.279 1.65l.9 1.79c-1.086.847-2.756 1.226-4.131 1.239m-2.898-6.502h5.18c-.04-1.418-1.026-2.172-2.451-2.162-1.408-.01-2.583.737-2.729 2.162ZM118.811 17.045V7.043h2.57v1.199c1.594-2.235 5.553-1.91 6.721.461.293.575.442 1.172.442 1.8v6.542h-2.57v-5.742c.007-1.355-.85-2.238-2.232-2.221-1.368-.04-2.404 1.072-2.361 2.43v5.53h-2.57v.003ZM135.279 17.347c-2.016.01-3.793-.827-4.779-2.52-1.149-1.96-.866-4.982.83-6.585 1.01-1 2.378-1.501 3.842-1.495 3.341-.063 5.453 2.693 4.882 5.921h-7.82c.016 3.158 4.356 3.171 6.279 1.65l.9 1.79c-1.086.847-2.756 1.226-4.131 1.239m-2.899-6.502h5.18c-.04-1.418-1.026-2.172-2.45-2.162-1.412-.01-2.584.737-2.73 2.162ZM147.538 14.76c-1.311.624-2.726.322-2.64-1.461v-4.17h2.63v-2.08h-2.63V4.152h-2.57V7.05h-2.108v2.078h2.108v4.679c0 1.185.303 2.072.904 2.66 1.089 1.139 3.337 1.076 4.705.329l-.399-2.04v.004Z"/></g><defs><linearGradient id="b" x1=".993" x2="15.65" y1="13.418" y2="4.958" gradientUnits="userSpaceOnUse"><stop stop-color="#035BFF"/><stop offset=".37" stop-color="#035BFF"/><stop offset=".58" stop-color="#1292F9"/><stop offset=".77" stop-color="#1DBBF5"/><stop offset=".91" stop-color="#24D5F2"/><stop offset="1" stop-color="#27DFF2"/></linearGradient><clipPath id="a"><path fill="#fff" d="M0 0h152.576v20H0z"/></clipPath></defs></svg>
